<?xml version="1.0" encoding="UTF-8" standalone="no"?>
<!DOCTYPE svg PUBLIC "-//W3C//DTD SVG 1.1//EN"
 "http://www.w3.org/Graphics/SVG/1.1/DTD/svg11.dtd">
<!-- Generated by graphviz version 2.43.0 (0)
 -->
<!-- Title: Tree Pages: 1 -->
<svg width="634pt" height="384pt"
 viewBox="0.00 0.00 634.00 384.10" xmlns="http://www.w3.org/2000/svg" xmlns:xlink="http://www.w3.org/1999/xlink">
<g id="graph0" class="graph" transform="scale(1 1) rotate(0) translate(4 380.1)">
<title>Tree</title>
<polygon fill="white" stroke="transparent" points="-4,4 -4,-380.1 630,-380.1 630,4 -4,4"/>
<!-- 0 -->
<g id="node1" class="node">
<title>0</title>
<path fill="#ffffff" stroke="black" d="M557,-376C557,-376 390,-376 390,-376 384,-376 378,-370 378,-364 378,-364 378,-320 378,-320 378,-314 384,-308 390,-308 390,-308 557,-308 557,-308 563,-308 569,-314 569,-320 569,-320 569,-364 569,-364 569,-370 563,-376 557,-376"/>
<text text-anchor="start" x="386" y="-360.8" font-family="Helvetica,sans-Serif" font-size="14.00">finishedsquarefeet12 ≤ 337.0</text>
<text text-anchor="start" x="410" y="-345.8" font-family="Helvetica,sans-Serif" font-size="14.00">squared_error = 0.03</text>
<text text-anchor="start" x="421" y="-330.8" font-family="Helvetica,sans-Serif" font-size="14.00">samples = 85670</text>
<text text-anchor="start" x="436" y="-315.8" font-family="Helvetica,sans-Serif" font-size="14.00">value = 0.01</text>
</g>
<!-- 1 -->
<g id="node2" class="node">
<title>1</title>
<path fill="#fae8da" stroke="black" d="M456.5,-271C456.5,-271 330.5,-271 330.5,-271 324.5,-271 318.5,-265 318.5,-259 318.5,-259 318.5,-215 318.5,-215 318.5,-209 324.5,-203 330.5,-203 330.5,-203 456.5,-203 456.5,-203 462.5,-203 468.5,-209 468.5,-215 468.5,-215 468.5,-259 468.5,-259 468.5,-265 462.5,-271 456.5,-271"/>
<text text-anchor="start" x="326.5" y="-255.8" font-family="Helvetica,sans-Serif" font-size="14.00">transactiondate ≤ 83.5</text>
<text text-anchor="start" x="330" y="-240.8" font-family="Helvetica,sans-Serif" font-size="14.00">squared_error = 0.96</text>
<text text-anchor="start" x="352.5" y="-225.8" font-family="Helvetica,sans-Serif" font-size="14.00">samples = 25</text>
<text text-anchor="start" x="356" y="-210.8" font-family="Helvetica,sans-Serif" font-size="14.00">value = 0.51</text>
</g>
<!-- 0&#45;&gt;1 -->
<g id="edge1" class="edge">
<title>0&#45;&gt;1</title>
<path fill="none" stroke="black" d="M447.75,-307.84C440.68,-298.75 432.93,-288.77 425.56,-279.28"/>
<polygon fill="black" stroke="black" points="428.1,-276.85 419.2,-271.09 422.57,-281.14 428.1,-276.85"/>
<text text-anchor="middle" x="416.09" y="-292.2" font-family="Helvetica,sans-Serif" font-size="14.00">True</text>
</g>
<!-- 2 -->
<g id="node7" class="node">
<title>2</title>
<path fill="#ffffff" stroke="black" d="M614,-53.5C614,-53.5 495,-53.5 495,-53.5 489,-53.5 483,-47.5 483,-41.5 483,-41.5 483,-12.5 483,-12.5 483,-6.5 489,-0.5 495,-0.5 495,-0.5 614,-0.5 614,-0.5 620,-0.5 626,-6.5 626,-12.5 626,-12.5 626,-41.5 626,-41.5 626,-47.5 620,-53.5 614,-53.5"/>
<text text-anchor="start" x="491" y="-38.3" font-family="Helvetica,sans-Serif" font-size="14.00">squared_error = 0.03</text>
<text text-anchor="start" x="502" y="-23.3" font-family="Helvetica,sans-Serif" font-size="14.00">samples = 85645</text>
<text text-anchor="start" x="517" y="-8.3" font-family="Helvetica,sans-Serif" font-size="14.00">value = 0.01</text>
</g>
<!-- 0&#45;&gt;2 -->
<g id="edge6" class="edge">
<title>0&#45;&gt;2</title>
<path fill="none" stroke="black" d="M482.09,-307.8C497.45,-248.46 529.48,-124.7 545.28,-63.64"/>
<polygon fill="black" stroke="black" points="548.73,-64.26 547.85,-53.7 541.96,-62.5 548.73,-64.26"/>
<text text-anchor="middle" x="560.53" y="-71.54" font-family="Helvetica,sans-Serif" font-size="14.00">False</text>
</g>
<!-- 3 -->
<g id="node3" class="node">
<title>3</title>
<path fill="#f0b990" stroke="black" d="M295,-166C295,-166 170,-166 170,-166 164,-166 158,-160 158,-154 158,-154 158,-110 158,-110 158,-104 164,-98 170,-98 170,-98 295,-98 295,-98 301,-98 307,-104 307,-110 307,-110 307,-154 307,-154 307,-160 301,-166 295,-166"/>
<text text-anchor="start" x="166" y="-150.8" font-family="Helvetica,sans-Serif" font-size="14.00">regionidcity ≤ 19815.0</text>
<text text-anchor="start" x="169" y="-135.8" font-family="Helvetica,sans-Serif" font-size="14.00">squared_error = 1.62</text>
<text text-anchor="start" x="195" y="-120.8" font-family="Helvetica,sans-Serif" font-size="14.00">samples = 7</text>
<text text-anchor="start" x="199" y="-105.8" font-family="Helvetica,sans-Serif" font-size="14.00">value = 1.5</text>
</g>
<!-- 1&#45;&gt;3 -->
<g id="edge2" class="edge">
<title>1&#45;&gt;3</title>
<path fill="none" stroke="black" d="M341.67,-202.84C326.16,-192.92 309.01,-181.95 293,-171.7"/>
<polygon fill="black" stroke="black" points="294.54,-168.54 284.23,-166.09 290.77,-174.43 294.54,-168.54"/>
</g>
<!-- 4 -->
<g id="node6" class="node">
<title>4</title>
<path fill="#fefaf7" stroke="black" d="M453,-53.5C453,-53.5 334,-53.5 334,-53.5 328,-53.5 322,-47.5 322,-41.5 322,-41.5 322,-12.5 322,-12.5 322,-6.5 328,-0.5 334,-0.5 334,-0.5 453,-0.5 453,-0.5 459,-0.5 465,-6.5 465,-12.5 465,-12.5 465,-41.5 465,-41.5 465,-47.5 459,-53.5 453,-53.5"/>
<text text-anchor="start" x="330" y="-38.3" font-family="Helvetica,sans-Serif" font-size="14.00">squared_error = 0.16</text>
<text text-anchor="start" x="352.5" y="-23.3" font-family="Helvetica,sans-Serif" font-size="14.00">samples = 18</text>
<text text-anchor="start" x="356" y="-8.3" font-family="Helvetica,sans-Serif" font-size="14.00">value = 0.12</text>
</g>
<!-- 1&#45;&gt;4 -->
<g id="edge5" class="edge">
<title>1&#45;&gt;4</title>
<path fill="none" stroke="black" d="M393.5,-202.58C393.5,-164.69 393.5,-103.12 393.5,-64.14"/>
<polygon fill="black" stroke="black" points="397,-63.78 393.5,-53.78 390,-63.78 397,-63.78"/>
</g>
<!-- 5 -->
<g id="node4" class="node">
<title>5</title>
<path fill="#e58139" stroke="black" d="M131,-53.5C131,-53.5 12,-53.5 12,-53.5 6,-53.5 0,-47.5 0,-41.5 0,-41.5 0,-12.5 0,-12.5 0,-6.5 6,-0.5 12,-0.5 12,-0.5 131,-0.5 131,-0.5 137,-0.5 143,-6.5 143,-12.5 143,-12.5 143,-41.5 143,-41.5 143,-47.5 137,-53.5 131,-53.5"/>
<text text-anchor="start" x="8" y="-38.3" font-family="Helvetica,sans-Serif" font-size="14.00">squared_error = 0.04</text>
<text text-anchor="start" x="34" y="-23.3" font-family="Helvetica,sans-Serif" font-size="14.00">samples = 3</text>
<text text-anchor="start" x="34" y="-8.3" font-family="Helvetica,sans-Serif" font-size="14.00">value = 2.69</text>
</g>
<!-- 3&#45;&gt;5 -->
<g id="edge3" class="edge">
<title>3&#45;&gt;5</title>
<path fill="none" stroke="black" d="M180.67,-97.84C161.22,-85.4 139.2,-71.31 120.06,-59.07"/>
<polygon fill="black" stroke="black" points="121.8,-56.02 111.49,-53.58 118.02,-61.92 121.8,-56.02"/>
</g>
<!-- 6 -->
<g id="node5" class="node">
<title>6</title>
<path fill="#f9e2d2" stroke="black" d="M292,-53.5C292,-53.5 173,-53.5 173,-53.5 167,-53.5 161,-47.5 161,-41.5 161,-41.5 161,-12.5 161,-12.5 161,-6.5 167,-0.5 173,-0.5 173,-0.5 292,-0.5 292,-0.5 298,-0.5 304,-6.5 304,-12.5 304,-12.5 304,-41.5 304,-41.5 304,-47.5 298,-53.5 292,-53.5"/>
<text text-anchor="start" x="169" y="-38.3" font-family="Helvetica,sans-Serif" font-size="14.00">squared_error = 0.98</text>
<text text-anchor="start" x="195" y="-23.3" font-family="Helvetica,sans-Serif" font-size="14.00">samples = 4</text>
<text text-anchor="start" x="195" y="-8.3" font-family="Helvetica,sans-Serif" font-size="14.00">value = 0.62</text>
</g>
<!-- 3&#45;&gt;6 -->
<g id="edge4" class="edge">
<title>3&#45;&gt;6</title>
<path fill="none" stroke="black" d="M232.5,-97.84C232.5,-86.97 232.5,-74.84 232.5,-63.78"/>
<polygon fill="black" stroke="black" points="236,-63.58 232.5,-53.58 229,-63.58 236,-63.58"/>
</g>
</g>
</svg>
