<?xml version="1.0" encoding="UTF-8" standalone="no"?>
<!DOCTYPE svg PUBLIC "-//W3C//DTD SVG 1.1//EN"
 "http://www.w3.org/Graphics/SVG/1.1/DTD/svg11.dtd">
<!-- Generated by graphviz version 2.43.0 (0)
 -->
<!-- Title: Tree Pages: 1 -->
<svg width="507pt" height="307pt"
 viewBox="0.00 0.00 506.50 306.80" xmlns="http://www.w3.org/2000/svg" xmlns:xlink="http://www.w3.org/1999/xlink">
<g id="graph0" class="graph" transform="scale(1 1) rotate(0) translate(4 302.8)">
<title>Tree</title>
<polygon fill="white" stroke="transparent" points="-4,4 -4,-302.8 502.5,-302.8 502.5,4 -4,4"/>
<!-- 0 -->
<g id="node1" class="node">
<title>0</title>
<path fill="#f5ceb2" stroke="black" d="M297.5,-294C297.5,-294 196.5,-294 196.5,-294 190.5,-294 184.5,-288 184.5,-282 184.5,-282 184.5,-238 184.5,-238 184.5,-232 190.5,-226 196.5,-226 196.5,-226 297.5,-226 297.5,-226 303.5,-226 309.5,-232 309.5,-238 309.5,-238 309.5,-282 309.5,-282 309.5,-288 303.5,-294 297.5,-294"/>
<text text-anchor="start" x="218" y="-278.8" font-family="Helvetica,sans-Serif" font-size="14.00">Sex ≤ 0.5</text>
<text text-anchor="start" x="215" y="-263.8" font-family="Helvetica,sans-Serif" font-size="14.00">gini = 0.47</text>
<text text-anchor="start" x="202" y="-248.8" font-family="Helvetica,sans-Serif" font-size="14.00">samples = 668</text>
<text text-anchor="start" x="192.5" y="-233.8" font-family="Helvetica,sans-Serif" font-size="14.00">value = [415, 253]</text>
</g>
<!-- 1 -->
<g id="node2" class="node">
<title>1</title>
<path fill="#7ebfee" stroke="black" d="M226.5,-175C226.5,-175 133.5,-175 133.5,-175 127.5,-175 121.5,-169 121.5,-163 121.5,-163 121.5,-119 121.5,-119 121.5,-113 127.5,-107 133.5,-107 133.5,-107 226.5,-107 226.5,-107 232.5,-107 238.5,-113 238.5,-119 238.5,-119 238.5,-163 238.5,-163 238.5,-169 232.5,-175 226.5,-175"/>
<text text-anchor="start" x="143" y="-159.8" font-family="Helvetica,sans-Serif" font-size="14.00">Pclass ≤ 2.5</text>
<text text-anchor="start" x="148" y="-144.8" font-family="Helvetica,sans-Serif" font-size="14.00">gini = 0.38</text>
<text text-anchor="start" x="135" y="-129.8" font-family="Helvetica,sans-Serif" font-size="14.00">samples = 229</text>
<text text-anchor="start" x="129.5" y="-114.8" font-family="Helvetica,sans-Serif" font-size="14.00">value = [59, 170]</text>
</g>
<!-- 0&#45;&gt;1 -->
<g id="edge1" class="edge">
<title>0&#45;&gt;1</title>
<path fill="none" stroke="black" d="M227.98,-225.79C220.55,-212.82 211.95,-197.8 204.1,-184.08"/>
<polygon fill="black" stroke="black" points="207.07,-182.24 199.07,-175.3 201,-185.71 207.07,-182.24"/>
<text text-anchor="middle" x="192.51" y="-195.72" font-family="Helvetica,sans-Serif" font-size="14.00">True</text>
</g>
<!-- 2 -->
<g id="node5" class="node">
<title>2</title>
<path fill="#eb9e67" stroke="black" d="M361.5,-175C361.5,-175 268.5,-175 268.5,-175 262.5,-175 256.5,-169 256.5,-163 256.5,-163 256.5,-119 256.5,-119 256.5,-113 262.5,-107 268.5,-107 268.5,-107 361.5,-107 361.5,-107 367.5,-107 373.5,-113 373.5,-119 373.5,-119 373.5,-163 373.5,-163 373.5,-169 367.5,-175 361.5,-175"/>
<text text-anchor="start" x="286" y="-159.8" font-family="Helvetica,sans-Serif" font-size="14.00">Age ≤ 6.5</text>
<text text-anchor="start" x="283" y="-144.8" font-family="Helvetica,sans-Serif" font-size="14.00">gini = 0.31</text>
<text text-anchor="start" x="270" y="-129.8" font-family="Helvetica,sans-Serif" font-size="14.00">samples = 439</text>
<text text-anchor="start" x="264.5" y="-114.8" font-family="Helvetica,sans-Serif" font-size="14.00">value = [356, 83]</text>
</g>
<!-- 0&#45;&gt;2 -->
<g id="edge4" class="edge">
<title>0&#45;&gt;2</title>
<path fill="none" stroke="black" d="M266.3,-225.79C273.84,-212.82 282.57,-197.8 290.54,-184.08"/>
<polygon fill="black" stroke="black" points="293.65,-185.7 295.65,-175.3 287.6,-182.18 293.65,-185.7"/>
<text text-anchor="middle" x="302.05" y="-195.76" font-family="Helvetica,sans-Serif" font-size="14.00">False</text>
</g>
<!-- 3 -->
<g id="node3" class="node">
<title>3</title>
<path fill="#40a0e6" stroke="black" d="M98,-56.5C98,-56.5 12,-56.5 12,-56.5 6,-56.5 0,-50.5 0,-44.5 0,-44.5 0,-15.5 0,-15.5 0,-9.5 6,-3.5 12,-3.5 12,-3.5 98,-3.5 98,-3.5 104,-3.5 110,-9.5 110,-15.5 110,-15.5 110,-44.5 110,-44.5 110,-50.5 104,-56.5 98,-56.5"/>
<text text-anchor="start" x="23" y="-41.3" font-family="Helvetica,sans-Serif" font-size="14.00">gini = 0.06</text>
<text text-anchor="start" x="10" y="-26.3" font-family="Helvetica,sans-Serif" font-size="14.00">samples = 120</text>
<text text-anchor="start" x="8" y="-11.3" font-family="Helvetica,sans-Serif" font-size="14.00">value = [4, 116]</text>
</g>
<!-- 1&#45;&gt;3 -->
<g id="edge2" class="edge">
<title>1&#45;&gt;3</title>
<path fill="none" stroke="black" d="M141.82,-106.7C126.16,-93.06 108.1,-77.31 92.52,-63.72"/>
<polygon fill="black" stroke="black" points="94.46,-60.77 84.62,-56.83 89.86,-66.04 94.46,-60.77"/>
</g>
<!-- 4 -->
<g id="node4" class="node">
<title>4</title>
<path fill="#fffdfb" stroke="black" d="M226,-56.5C226,-56.5 140,-56.5 140,-56.5 134,-56.5 128,-50.5 128,-44.5 128,-44.5 128,-15.5 128,-15.5 128,-9.5 134,-3.5 140,-3.5 140,-3.5 226,-3.5 226,-3.5 232,-3.5 238,-9.5 238,-15.5 238,-15.5 238,-44.5 238,-44.5 238,-50.5 232,-56.5 226,-56.5"/>
<text text-anchor="start" x="155" y="-41.3" font-family="Helvetica,sans-Serif" font-size="14.00">gini = 0.5</text>
<text text-anchor="start" x="138" y="-26.3" font-family="Helvetica,sans-Serif" font-size="14.00">samples = 109</text>
<text text-anchor="start" x="136" y="-11.3" font-family="Helvetica,sans-Serif" font-size="14.00">value = [55, 54]</text>
</g>
<!-- 1&#45;&gt;4 -->
<g id="edge3" class="edge">
<title>1&#45;&gt;4</title>
<path fill="none" stroke="black" d="M180.92,-106.7C181.26,-94.18 181.65,-79.89 182.01,-67.13"/>
<polygon fill="black" stroke="black" points="185.51,-66.92 182.29,-56.83 178.52,-66.73 185.51,-66.92"/>
</g>
<!-- 5 -->
<g id="node6" class="node">
<title>5</title>
<path fill="#88c4ef" stroke="black" d="M351,-56.5C351,-56.5 273,-56.5 273,-56.5 267,-56.5 261,-50.5 261,-44.5 261,-44.5 261,-15.5 261,-15.5 261,-9.5 267,-3.5 273,-3.5 273,-3.5 351,-3.5 351,-3.5 357,-3.5 363,-9.5 363,-15.5 363,-15.5 363,-44.5 363,-44.5 363,-50.5 357,-56.5 351,-56.5"/>
<text text-anchor="start" x="280" y="-41.3" font-family="Helvetica,sans-Serif" font-size="14.00">gini = 0.41</text>
<text text-anchor="start" x="271" y="-26.3" font-family="Helvetica,sans-Serif" font-size="14.00">samples = 21</text>
<text text-anchor="start" x="269" y="-11.3" font-family="Helvetica,sans-Serif" font-size="14.00">value = [6, 15]</text>
</g>
<!-- 2&#45;&gt;5 -->
<g id="edge5" class="edge">
<title>2&#45;&gt;5</title>
<path fill="none" stroke="black" d="M314.08,-106.7C313.74,-94.18 313.35,-79.89 312.99,-67.13"/>
<polygon fill="black" stroke="black" points="316.48,-66.73 312.71,-56.83 309.49,-66.92 316.48,-66.73"/>
</g>
<!-- 6 -->
<g id="node7" class="node">
<title>6</title>
<path fill="#ea995f" stroke="black" d="M486.5,-56.5C486.5,-56.5 393.5,-56.5 393.5,-56.5 387.5,-56.5 381.5,-50.5 381.5,-44.5 381.5,-44.5 381.5,-15.5 381.5,-15.5 381.5,-9.5 387.5,-3.5 393.5,-3.5 393.5,-3.5 486.5,-3.5 486.5,-3.5 492.5,-3.5 498.5,-9.5 498.5,-15.5 498.5,-15.5 498.5,-44.5 498.5,-44.5 498.5,-50.5 492.5,-56.5 486.5,-56.5"/>
<text text-anchor="start" x="408" y="-41.3" font-family="Helvetica,sans-Serif" font-size="14.00">gini = 0.27</text>
<text text-anchor="start" x="395" y="-26.3" font-family="Helvetica,sans-Serif" font-size="14.00">samples = 418</text>
<text text-anchor="start" x="389.5" y="-11.3" font-family="Helvetica,sans-Serif" font-size="14.00">value = [350, 68]</text>
</g>
<!-- 2&#45;&gt;6 -->
<g id="edge6" class="edge">
<title>2&#45;&gt;6</title>
<path fill="none" stroke="black" d="M353.18,-106.7C368.84,-93.06 386.9,-77.31 402.48,-63.72"/>
<polygon fill="black" stroke="black" points="405.14,-66.04 410.38,-56.83 400.54,-60.77 405.14,-66.04"/>
</g>
</g>
</svg>
