<?xml version="1.0" encoding="UTF-8" standalone="no"?>
<!DOCTYPE svg PUBLIC "-//W3C//DTD SVG 1.1//EN"
 "http://www.w3.org/Graphics/SVG/1.1/DTD/svg11.dtd">
<!-- Generated by graphviz version 2.43.0 (0)
 -->
<!-- Title: Tree Pages: 1 -->
<svg width="634pt" height="384pt"
 viewBox="0.00 0.00 634.00 384.10" xmlns="http://www.w3.org/2000/svg" xmlns:xlink="http://www.w3.org/1999/xlink">
<g id="graph0" class="graph" transform="scale(1 1) rotate(0) translate(4 380.1)">
<title>Tree</title>
<polygon fill="white" stroke="transparent" points="-4,4 -4,-380.1 630,-380.1 630,4 -4,4"/>
<!-- 0 -->
<g id="node1" class="node">
<title>0</title>
<path fill="#eda775" stroke="black" d="M537,-376C537,-376 410,-376 410,-376 404,-376 398,-370 398,-364 398,-364 398,-320 398,-320 398,-314 404,-308 410,-308 410,-308 537,-308 537,-308 543,-308 549,-314 549,-320 549,-320 549,-364 549,-364 549,-370 543,-376 537,-376"/>
<text text-anchor="start" x="406" y="-360.8" font-family="Helvetica,sans-Serif" font-size="14.00">Coupler_System ≤ 0.5</text>
<text text-anchor="start" x="410" y="-345.8" font-family="Helvetica,sans-Serif" font-size="14.00">squared_error = 0.48</text>
<text text-anchor="start" x="417.5" y="-330.8" font-family="Helvetica,sans-Serif" font-size="14.00">samples = 404710</text>
<text text-anchor="start" x="436" y="-315.8" font-family="Helvetica,sans-Serif" font-size="14.00">value = 10.1</text>
</g>
<!-- 1 -->
<g id="node2" class="node">
<title>1</title>
<path fill="#eb9d64" stroke="black" d="M372,-271C372,-271 253,-271 253,-271 247,-271 241,-265 241,-259 241,-259 241,-215 241,-215 241,-209 247,-203 253,-203 253,-203 372,-203 372,-203 378,-203 384,-209 384,-215 384,-215 384,-259 384,-259 384,-265 378,-271 372,-271"/>
<text text-anchor="start" x="253" y="-255.8" font-family="Helvetica,sans-Serif" font-size="14.00">YearMade ≤ 1991.5</text>
<text text-anchor="start" x="249" y="-240.8" font-family="Helvetica,sans-Serif" font-size="14.00">squared_error = 0.42</text>
<text text-anchor="start" x="256.5" y="-225.8" font-family="Helvetica,sans-Serif" font-size="14.00">samples = 360847</text>
<text text-anchor="start" x="271.5" y="-210.8" font-family="Helvetica,sans-Serif" font-size="14.00">value = 10.21</text>
</g>
<!-- 0&#45;&gt;1 -->
<g id="edge1" class="edge">
<title>0&#45;&gt;1</title>
<path fill="none" stroke="black" d="M421.67,-307.84C406.16,-297.92 389.01,-286.95 373,-276.7"/>
<polygon fill="black" stroke="black" points="374.54,-273.54 364.23,-271.09 370.77,-279.43 374.54,-273.54"/>
<text text-anchor="middle" x="369.6" y="-291.81" font-family="Helvetica,sans-Serif" font-size="14.00">True</text>
</g>
<!-- 2 -->
<g id="node7" class="node">
<title>2</title>
<path fill="#ffffff" stroke="black" d="M614,-53.5C614,-53.5 495,-53.5 495,-53.5 489,-53.5 483,-47.5 483,-41.5 483,-41.5 483,-12.5 483,-12.5 483,-6.5 489,-0.5 495,-0.5 495,-0.5 614,-0.5 614,-0.5 620,-0.5 626,-6.5 626,-12.5 626,-12.5 626,-41.5 626,-41.5 626,-47.5 620,-53.5 614,-53.5"/>
<text text-anchor="start" x="491" y="-38.3" font-family="Helvetica,sans-Serif" font-size="14.00">squared_error = 0.12</text>
<text text-anchor="start" x="502" y="-23.3" font-family="Helvetica,sans-Serif" font-size="14.00">samples = 43863</text>
<text text-anchor="start" x="517" y="-8.3" font-family="Helvetica,sans-Serif" font-size="14.00">value = 9.21</text>
</g>
<!-- 0&#45;&gt;2 -->
<g id="edge6" class="edge">
<title>0&#45;&gt;2</title>
<path fill="none" stroke="black" d="M482.09,-307.8C497.45,-248.46 529.48,-124.7 545.28,-63.64"/>
<polygon fill="black" stroke="black" points="548.73,-64.26 547.85,-53.7 541.96,-62.5 548.73,-64.26"/>
<text text-anchor="middle" x="560.53" y="-71.54" font-family="Helvetica,sans-Serif" font-size="14.00">False</text>
</g>
<!-- 3 -->
<g id="node3" class="node">
<title>3</title>
<path fill="#f0b48a" stroke="black" d="M131,-53.5C131,-53.5 12,-53.5 12,-53.5 6,-53.5 0,-47.5 0,-41.5 0,-41.5 0,-12.5 0,-12.5 0,-6.5 6,-0.5 12,-0.5 12,-0.5 131,-0.5 131,-0.5 137,-0.5 143,-6.5 143,-12.5 143,-12.5 143,-41.5 143,-41.5 143,-47.5 137,-53.5 131,-53.5"/>
<text text-anchor="start" x="8" y="-38.3" font-family="Helvetica,sans-Serif" font-size="14.00">squared_error = 0.37</text>
<text text-anchor="start" x="15.5" y="-23.3" font-family="Helvetica,sans-Serif" font-size="14.00">samples = 155724</text>
<text text-anchor="start" x="34" y="-8.3" font-family="Helvetica,sans-Serif" font-size="14.00">value = 9.97</text>
</g>
<!-- 1&#45;&gt;3 -->
<g id="edge2" class="edge">
<title>1&#45;&gt;3</title>
<path fill="none" stroke="black" d="M274.05,-202.81C228.66,-163.64 153.71,-98.96 108.83,-60.22"/>
<polygon fill="black" stroke="black" points="110.94,-57.41 101.08,-53.53 106.36,-62.71 110.94,-57.41"/>
</g>
<!-- 4 -->
<g id="node4" class="node">
<title>4</title>
<path fill="#e78a48" stroke="black" d="M372,-166C372,-166 253,-166 253,-166 247,-166 241,-160 241,-154 241,-154 241,-110 241,-110 241,-104 247,-98 253,-98 253,-98 372,-98 372,-98 378,-98 384,-104 384,-110 384,-110 384,-154 384,-154 384,-160 378,-166 372,-166"/>
<text text-anchor="start" x="259" y="-150.8" font-family="Helvetica,sans-Serif" font-size="14.00">ProductSize ≤ 4.5</text>
<text text-anchor="start" x="249" y="-135.8" font-family="Helvetica,sans-Serif" font-size="14.00">squared_error = 0.37</text>
<text text-anchor="start" x="256.5" y="-120.8" font-family="Helvetica,sans-Serif" font-size="14.00">samples = 205123</text>
<text text-anchor="start" x="275" y="-105.8" font-family="Helvetica,sans-Serif" font-size="14.00">value = 10.4</text>
</g>
<!-- 1&#45;&gt;4 -->
<g id="edge3" class="edge">
<title>1&#45;&gt;4</title>
<path fill="none" stroke="black" d="M312.5,-202.84C312.5,-194.39 312.5,-185.18 312.5,-176.3"/>
<polygon fill="black" stroke="black" points="316,-176.09 312.5,-166.09 309,-176.09 316,-176.09"/>
</g>
<!-- 5 -->
<g id="node5" class="node">
<title>5</title>
<path fill="#e58139" stroke="black" d="M292,-53.5C292,-53.5 173,-53.5 173,-53.5 167,-53.5 161,-47.5 161,-41.5 161,-41.5 161,-12.5 161,-12.5 161,-6.5 167,-0.5 173,-0.5 173,-0.5 292,-0.5 292,-0.5 298,-0.5 304,-6.5 304,-12.5 304,-12.5 304,-41.5 304,-41.5 304,-47.5 298,-53.5 292,-53.5"/>
<text text-anchor="start" x="169" y="-38.3" font-family="Helvetica,sans-Serif" font-size="14.00">squared_error = 0.31</text>
<text text-anchor="start" x="176.5" y="-23.3" font-family="Helvetica,sans-Serif" font-size="14.00">samples = 182403</text>
<text text-anchor="start" x="195" y="-8.3" font-family="Helvetica,sans-Serif" font-size="14.00">value = 10.5</text>
</g>
<!-- 4&#45;&gt;5 -->
<g id="edge4" class="edge">
<title>4&#45;&gt;5</title>
<path fill="none" stroke="black" d="M286.75,-97.84C277.78,-86.3 267.71,-73.33 258.71,-61.74"/>
<polygon fill="black" stroke="black" points="261.27,-59.33 252.37,-53.58 255.74,-63.63 261.27,-59.33"/>
</g>
<!-- 6 -->
<g id="node6" class="node">
<title>6</title>
<path fill="#f7d6bf" stroke="black" d="M453,-53.5C453,-53.5 334,-53.5 334,-53.5 328,-53.5 322,-47.5 322,-41.5 322,-41.5 322,-12.5 322,-12.5 322,-6.5 328,-0.5 334,-0.5 334,-0.5 453,-0.5 453,-0.5 459,-0.5 465,-6.5 465,-12.5 465,-12.5 465,-41.5 465,-41.5 465,-47.5 459,-53.5 453,-53.5"/>
<text text-anchor="start" x="330" y="-38.3" font-family="Helvetica,sans-Serif" font-size="14.00">squared_error = 0.17</text>
<text text-anchor="start" x="341" y="-23.3" font-family="Helvetica,sans-Serif" font-size="14.00">samples = 22720</text>
<text text-anchor="start" x="356" y="-8.3" font-family="Helvetica,sans-Serif" font-size="14.00">value = 9.62</text>
</g>
<!-- 4&#45;&gt;6 -->
<g id="edge5" class="edge">
<title>4&#45;&gt;6</title>
<path fill="none" stroke="black" d="M338.57,-97.84C347.66,-86.3 357.85,-73.33 366.97,-61.74"/>
<polygon fill="black" stroke="black" points="369.95,-63.6 373.38,-53.58 364.45,-59.28 369.95,-63.6"/>
</g>
</g>
</svg>
