<?xml version="1.0" encoding="UTF-8" standalone="no"?>
<!DOCTYPE svg PUBLIC "-//W3C//DTD SVG 1.1//EN"
 "http://www.w3.org/Graphics/SVG/1.1/DTD/svg11.dtd">
<!-- Generated by graphviz version 2.43.0 (0)
 -->
<!-- Title: Tree Pages: 1 -->
<svg width="1136pt" height="685pt"
 viewBox="0.00 0.00 1136.33 685.00" xmlns="http://www.w3.org/2000/svg" xmlns:xlink="http://www.w3.org/1999/xlink">
<g id="graph0" class="graph" transform="scale(1 1) rotate(0) translate(4 681)">
<title>Tree</title>
<polygon fill="white" stroke="transparent" points="-4,4 -4,-681 1132.33,-681 1132.33,4 -4,4"/>
<!-- 0 -->
<g id="node1" class="node">
<title>0</title>
<path fill="#f5ceb2" stroke="black" d="M596.8,-677C596.8,-677 495.8,-677 495.8,-677 489.8,-677 483.8,-671 483.8,-665 483.8,-665 483.8,-621 483.8,-621 483.8,-615 489.8,-609 495.8,-609 495.8,-609 596.8,-609 596.8,-609 602.8,-609 608.8,-615 608.8,-621 608.8,-621 608.8,-665 608.8,-665 608.8,-671 602.8,-677 596.8,-677"/>
<text text-anchor="start" x="517.3" y="-661.8" font-family="Helvetica,sans-Serif" font-size="14.00">Sex ≤ 0.5</text>
<text text-anchor="start" x="514.3" y="-646.8" font-family="Helvetica,sans-Serif" font-size="14.00">gini = 0.47</text>
<text text-anchor="start" x="501.3" y="-631.8" font-family="Helvetica,sans-Serif" font-size="14.00">samples = 668</text>
<text text-anchor="start" x="491.8" y="-616.8" font-family="Helvetica,sans-Serif" font-size="14.00">value = [415, 253]</text>
</g>
<!-- 1 -->
<g id="node2" class="node">
<title>1</title>
<path fill="#7ebfee" stroke="black" d="M449.8,-573C449.8,-573 356.8,-573 356.8,-573 350.8,-573 344.8,-567 344.8,-561 344.8,-561 344.8,-517 344.8,-517 344.8,-511 350.8,-505 356.8,-505 356.8,-505 449.8,-505 449.8,-505 455.8,-505 461.8,-511 461.8,-517 461.8,-517 461.8,-561 461.8,-561 461.8,-567 455.8,-573 449.8,-573"/>
<text text-anchor="start" x="366.3" y="-557.8" font-family="Helvetica,sans-Serif" font-size="14.00">Pclass ≤ 2.5</text>
<text text-anchor="start" x="371.3" y="-542.8" font-family="Helvetica,sans-Serif" font-size="14.00">gini = 0.38</text>
<text text-anchor="start" x="358.3" y="-527.8" font-family="Helvetica,sans-Serif" font-size="14.00">samples = 229</text>
<text text-anchor="start" x="352.8" y="-512.8" font-family="Helvetica,sans-Serif" font-size="14.00">value = [59, 170]</text>
</g>
<!-- 0&#45;&gt;1 -->
<g id="edge1" class="edge">
<title>0&#45;&gt;1</title>
<path fill="none" stroke="black" d="M499.88,-608.88C486.64,-599.44 472.09,-589.06 458.39,-579.29"/>
<polygon fill="black" stroke="black" points="460.16,-576.26 449.99,-573.3 456.1,-581.96 460.16,-576.26"/>
<text text-anchor="middle" x="454.11" y="-594.26" font-family="Helvetica,sans-Serif" font-size="14.00">True</text>
</g>
<!-- 8 -->
<g id="node9" class="node">
<title>8</title>
<path fill="#eb9e67" stroke="black" d="M743.8,-573C743.8,-573 650.8,-573 650.8,-573 644.8,-573 638.8,-567 638.8,-561 638.8,-561 638.8,-517 638.8,-517 638.8,-511 644.8,-505 650.8,-505 650.8,-505 743.8,-505 743.8,-505 749.8,-505 755.8,-511 755.8,-517 755.8,-517 755.8,-561 755.8,-561 755.8,-567 749.8,-573 743.8,-573"/>
<text text-anchor="start" x="651.3" y="-557.8" font-family="Helvetica,sans-Serif" font-size="14.00">LogFare ≤ 3.31</text>
<text text-anchor="start" x="665.3" y="-542.8" font-family="Helvetica,sans-Serif" font-size="14.00">gini = 0.31</text>
<text text-anchor="start" x="652.3" y="-527.8" font-family="Helvetica,sans-Serif" font-size="14.00">samples = 439</text>
<text text-anchor="start" x="646.8" y="-512.8" font-family="Helvetica,sans-Serif" font-size="14.00">value = [356, 83]</text>
</g>
<!-- 0&#45;&gt;8 -->
<g id="edge8" class="edge">
<title>0&#45;&gt;8</title>
<path fill="none" stroke="black" d="M595.33,-608.88C609.51,-599.3 625.12,-588.76 639.77,-578.86"/>
<polygon fill="black" stroke="black" points="641.94,-581.62 648.27,-573.12 638.02,-575.82 641.94,-581.62"/>
<text text-anchor="middle" x="643.51" y="-593.97" font-family="Helvetica,sans-Serif" font-size="14.00">False</text>
</g>
<!-- 2 -->
<g id="node3" class="node">
<title>2</title>
<path fill="#40a0e6" stroke="black" d="M236.3,-469C236.3,-469 150.3,-469 150.3,-469 144.3,-469 138.3,-463 138.3,-457 138.3,-457 138.3,-413 138.3,-413 138.3,-407 144.3,-401 150.3,-401 150.3,-401 236.3,-401 236.3,-401 242.3,-401 248.3,-407 248.3,-413 248.3,-413 248.3,-457 248.3,-457 248.3,-463 242.3,-469 236.3,-469"/>
<text text-anchor="start" x="160.3" y="-453.8" font-family="Helvetica,sans-Serif" font-size="14.00">Age ≤ 28.5</text>
<text text-anchor="start" x="161.3" y="-438.8" font-family="Helvetica,sans-Serif" font-size="14.00">gini = 0.06</text>
<text text-anchor="start" x="148.3" y="-423.8" font-family="Helvetica,sans-Serif" font-size="14.00">samples = 120</text>
<text text-anchor="start" x="146.3" y="-408.8" font-family="Helvetica,sans-Serif" font-size="14.00">value = [4, 116]</text>
</g>
<!-- 1&#45;&gt;2 -->
<g id="edge2" class="edge">
<title>1&#45;&gt;2</title>
<path fill="none" stroke="black" d="M344.53,-509.45C317.49,-496.32 285.35,-480.71 257.66,-467.26"/>
<polygon fill="black" stroke="black" points="258.98,-464.01 248.46,-462.79 255.92,-470.31 258.98,-464.01"/>
</g>
<!-- 5 -->
<g id="node6" class="node">
<title>5</title>
<path fill="#fffdfb" stroke="black" d="M446.3,-469C446.3,-469 360.3,-469 360.3,-469 354.3,-469 348.3,-463 348.3,-457 348.3,-457 348.3,-413 348.3,-413 348.3,-407 354.3,-401 360.3,-401 360.3,-401 446.3,-401 446.3,-401 452.3,-401 458.3,-407 458.3,-413 458.3,-413 458.3,-457 458.3,-457 458.3,-463 452.3,-469 446.3,-469"/>
<text text-anchor="start" x="360.8" y="-453.8" font-family="Helvetica,sans-Serif" font-size="14.00">LogFare ≤ 2.7</text>
<text text-anchor="start" x="375.3" y="-438.8" font-family="Helvetica,sans-Serif" font-size="14.00">gini = 0.5</text>
<text text-anchor="start" x="358.3" y="-423.8" font-family="Helvetica,sans-Serif" font-size="14.00">samples = 109</text>
<text text-anchor="start" x="356.3" y="-408.8" font-family="Helvetica,sans-Serif" font-size="14.00">value = [55, 54]</text>
</g>
<!-- 1&#45;&gt;5 -->
<g id="edge5" class="edge">
<title>1&#45;&gt;5</title>
<path fill="none" stroke="black" d="M403.3,-504.88C403.3,-496.78 403.3,-487.98 403.3,-479.47"/>
<polygon fill="black" stroke="black" points="406.8,-479.3 403.3,-469.3 399.8,-479.3 406.8,-479.3"/>
</g>
<!-- 3 -->
<g id="node4" class="node">
<title>3</title>
<path fill="#45a3e7" stroke="black" d="M96.3,-357.5C96.3,-357.5 18.3,-357.5 18.3,-357.5 12.3,-357.5 6.3,-351.5 6.3,-345.5 6.3,-345.5 6.3,-316.5 6.3,-316.5 6.3,-310.5 12.3,-304.5 18.3,-304.5 18.3,-304.5 96.3,-304.5 96.3,-304.5 102.3,-304.5 108.3,-310.5 108.3,-316.5 108.3,-316.5 108.3,-345.5 108.3,-345.5 108.3,-351.5 102.3,-357.5 96.3,-357.5"/>
<text text-anchor="start" x="25.3" y="-342.3" font-family="Helvetica,sans-Serif" font-size="14.00">gini = 0.11</text>
<text text-anchor="start" x="16.3" y="-327.3" font-family="Helvetica,sans-Serif" font-size="14.00">samples = 53</text>
<text text-anchor="start" x="14.3" y="-312.3" font-family="Helvetica,sans-Serif" font-size="14.00">value = [3, 50]</text>
</g>
<!-- 2&#45;&gt;3 -->
<g id="edge3" class="edge">
<title>2&#45;&gt;3</title>
<path fill="none" stroke="black" d="M149.15,-400.88C133.17,-388.9 115.17,-375.4 99.37,-363.55"/>
<polygon fill="black" stroke="black" points="101.43,-360.72 91.33,-357.52 97.23,-366.32 101.43,-360.72"/>
</g>
<!-- 4 -->
<g id="node5" class="node">
<title>4</title>
<path fill="#3c9ee5" stroke="black" d="M232.3,-357.5C232.3,-357.5 154.3,-357.5 154.3,-357.5 148.3,-357.5 142.3,-351.5 142.3,-345.5 142.3,-345.5 142.3,-316.5 142.3,-316.5 142.3,-310.5 148.3,-304.5 154.3,-304.5 154.3,-304.5 232.3,-304.5 232.3,-304.5 238.3,-304.5 244.3,-310.5 244.3,-316.5 244.3,-316.5 244.3,-345.5 244.3,-345.5 244.3,-351.5 238.3,-357.5 232.3,-357.5"/>
<text text-anchor="start" x="161.3" y="-342.3" font-family="Helvetica,sans-Serif" font-size="14.00">gini = 0.03</text>
<text text-anchor="start" x="152.3" y="-327.3" font-family="Helvetica,sans-Serif" font-size="14.00">samples = 67</text>
<text text-anchor="start" x="150.3" y="-312.3" font-family="Helvetica,sans-Serif" font-size="14.00">value = [1, 66]</text>
</g>
<!-- 2&#45;&gt;4 -->
<g id="edge4" class="edge">
<title>2&#45;&gt;4</title>
<path fill="none" stroke="black" d="M193.3,-400.88C193.3,-390.33 193.3,-378.6 193.3,-367.85"/>
<polygon fill="black" stroke="black" points="196.8,-367.52 193.3,-357.52 189.8,-367.52 196.8,-367.52"/>
</g>
<!-- 6 -->
<g id="node7" class="node">
<title>6</title>
<path fill="#cbe5f8" stroke="black" d="M376.3,-357.5C376.3,-357.5 290.3,-357.5 290.3,-357.5 284.3,-357.5 278.3,-351.5 278.3,-345.5 278.3,-345.5 278.3,-316.5 278.3,-316.5 278.3,-310.5 284.3,-304.5 290.3,-304.5 290.3,-304.5 376.3,-304.5 376.3,-304.5 382.3,-304.5 388.3,-310.5 388.3,-316.5 388.3,-316.5 388.3,-345.5 388.3,-345.5 388.3,-351.5 382.3,-357.5 376.3,-357.5"/>
<text text-anchor="start" x="301.3" y="-342.3" font-family="Helvetica,sans-Serif" font-size="14.00">gini = 0.49</text>
<text text-anchor="start" x="292.3" y="-327.3" font-family="Helvetica,sans-Serif" font-size="14.00">samples = 59</text>
<text text-anchor="start" x="286.3" y="-312.3" font-family="Helvetica,sans-Serif" font-size="14.00">value = [25, 34]</text>
</g>
<!-- 5&#45;&gt;6 -->
<g id="edge6" class="edge">
<title>5&#45;&gt;6</title>
<path fill="none" stroke="black" d="M380.58,-400.88C372.88,-389.67 364.27,-377.13 356.54,-365.85"/>
<polygon fill="black" stroke="black" points="359.36,-363.78 350.82,-357.52 353.59,-367.75 359.36,-363.78"/>
</g>
<!-- 7 -->
<g id="node8" class="node">
<title>7</title>
<path fill="#f6d5bd" stroke="black" d="M521.3,-357.5C521.3,-357.5 435.3,-357.5 435.3,-357.5 429.3,-357.5 423.3,-351.5 423.3,-345.5 423.3,-345.5 423.3,-316.5 423.3,-316.5 423.3,-310.5 429.3,-304.5 435.3,-304.5 435.3,-304.5 521.3,-304.5 521.3,-304.5 527.3,-304.5 533.3,-310.5 533.3,-316.5 533.3,-316.5 533.3,-345.5 533.3,-345.5 533.3,-351.5 527.3,-357.5 521.3,-357.5"/>
<text text-anchor="start" x="446.3" y="-342.3" font-family="Helvetica,sans-Serif" font-size="14.00">gini = 0.48</text>
<text text-anchor="start" x="437.3" y="-327.3" font-family="Helvetica,sans-Serif" font-size="14.00">samples = 50</text>
<text text-anchor="start" x="431.3" y="-312.3" font-family="Helvetica,sans-Serif" font-size="14.00">value = [30, 20]</text>
</g>
<!-- 5&#45;&gt;7 -->
<g id="edge7" class="edge">
<title>5&#45;&gt;7</title>
<path fill="none" stroke="black" d="M427.65,-400.88C435.9,-389.67 445.12,-377.13 453.41,-365.85"/>
<polygon fill="black" stroke="black" points="456.44,-367.65 459.54,-357.52 450.8,-363.5 456.44,-367.65"/>
</g>
<!-- 9 -->
<g id="node10" class="node">
<title>9</title>
<path fill="#e99659" stroke="black" d="M743.8,-469C743.8,-469 650.8,-469 650.8,-469 644.8,-469 638.8,-463 638.8,-457 638.8,-457 638.8,-413 638.8,-413 638.8,-407 644.8,-401 650.8,-401 650.8,-401 743.8,-401 743.8,-401 749.8,-401 755.8,-407 755.8,-413 755.8,-413 755.8,-457 755.8,-457 755.8,-463 749.8,-469 743.8,-469"/>
<text text-anchor="start" x="664.3" y="-453.8" font-family="Helvetica,sans-Serif" font-size="14.00">Age ≤ 20.5</text>
<text text-anchor="start" x="665.3" y="-438.8" font-family="Helvetica,sans-Serif" font-size="14.00">gini = 0.24</text>
<text text-anchor="start" x="652.3" y="-423.8" font-family="Helvetica,sans-Serif" font-size="14.00">samples = 320</text>
<text text-anchor="start" x="646.8" y="-408.8" font-family="Helvetica,sans-Serif" font-size="14.00">value = [275, 45]</text>
</g>
<!-- 8&#45;&gt;9 -->
<g id="edge9" class="edge">
<title>8&#45;&gt;9</title>
<path fill="none" stroke="black" d="M697.3,-504.88C697.3,-496.78 697.3,-487.98 697.3,-479.47"/>
<polygon fill="black" stroke="black" points="700.8,-479.3 697.3,-469.3 693.8,-479.3 700.8,-479.3"/>
</g>
<!-- 18 -->
<g id="node19" class="node">
<title>18</title>
<path fill="#f1bc96" stroke="black" d="M964.3,-469C964.3,-469 878.3,-469 878.3,-469 872.3,-469 866.3,-463 866.3,-457 866.3,-457 866.3,-413 866.3,-413 866.3,-407 872.3,-401 878.3,-401 878.3,-401 964.3,-401 964.3,-401 970.3,-401 976.3,-407 976.3,-413 976.3,-413 976.3,-457 976.3,-457 976.3,-463 970.3,-469 964.3,-469"/>
<text text-anchor="start" x="886.3" y="-453.8" font-family="Helvetica,sans-Serif" font-size="14.00">SibSp ≤ 0.5</text>
<text text-anchor="start" x="889.3" y="-438.8" font-family="Helvetica,sans-Serif" font-size="14.00">gini = 0.43</text>
<text text-anchor="start" x="876.3" y="-423.8" font-family="Helvetica,sans-Serif" font-size="14.00">samples = 119</text>
<text text-anchor="start" x="874.3" y="-408.8" font-family="Helvetica,sans-Serif" font-size="14.00">value = [81, 38]</text>
</g>
<!-- 8&#45;&gt;18 -->
<g id="edge18" class="edge">
<title>8&#45;&gt;18</title>
<path fill="none" stroke="black" d="M755.86,-511.33C786.89,-497.2 825.07,-479.82 856.93,-465.31"/>
<polygon fill="black" stroke="black" points="858.52,-468.44 866.17,-461.11 855.61,-462.07 858.52,-468.44"/>
</g>
<!-- 10 -->
<g id="node11" class="node">
<title>10</title>
<path fill="#f1b992" stroke="black" d="M666.3,-357.5C666.3,-357.5 580.3,-357.5 580.3,-357.5 574.3,-357.5 568.3,-351.5 568.3,-345.5 568.3,-345.5 568.3,-316.5 568.3,-316.5 568.3,-310.5 574.3,-304.5 580.3,-304.5 580.3,-304.5 666.3,-304.5 666.3,-304.5 672.3,-304.5 678.3,-310.5 678.3,-316.5 678.3,-316.5 678.3,-345.5 678.3,-345.5 678.3,-351.5 672.3,-357.5 666.3,-357.5"/>
<text text-anchor="start" x="591.3" y="-342.3" font-family="Helvetica,sans-Serif" font-size="14.00">gini = 0.43</text>
<text text-anchor="start" x="582.3" y="-327.3" font-family="Helvetica,sans-Serif" font-size="14.00">samples = 55</text>
<text text-anchor="start" x="576.3" y="-312.3" font-family="Helvetica,sans-Serif" font-size="14.00">value = [38, 17]</text>
</g>
<!-- 9&#45;&gt;10 -->
<g id="edge10" class="edge">
<title>9&#45;&gt;10</title>
<path fill="none" stroke="black" d="M673.28,-400.88C665.14,-389.67 656.04,-377.13 647.86,-365.85"/>
<polygon fill="black" stroke="black" points="650.52,-363.56 641.82,-357.52 644.86,-367.67 650.52,-363.56"/>
</g>
<!-- 11 -->
<g id="node12" class="node">
<title>11</title>
<path fill="#e89050" stroke="black" d="M818.8,-365C818.8,-365 725.8,-365 725.8,-365 719.8,-365 713.8,-359 713.8,-353 713.8,-353 713.8,-309 713.8,-309 713.8,-303 719.8,-297 725.8,-297 725.8,-297 818.8,-297 818.8,-297 824.8,-297 830.8,-303 830.8,-309 830.8,-309 830.8,-353 830.8,-353 830.8,-359 824.8,-365 818.8,-365"/>
<text text-anchor="start" x="739.3" y="-349.8" font-family="Helvetica,sans-Serif" font-size="14.00">Age ≤ 32.5</text>
<text text-anchor="start" x="740.3" y="-334.8" font-family="Helvetica,sans-Serif" font-size="14.00">gini = 0.19</text>
<text text-anchor="start" x="727.3" y="-319.8" font-family="Helvetica,sans-Serif" font-size="14.00">samples = 265</text>
<text text-anchor="start" x="721.8" y="-304.8" font-family="Helvetica,sans-Serif" font-size="14.00">value = [237, 28]</text>
</g>
<!-- 9&#45;&gt;11 -->
<g id="edge11" class="edge">
<title>9&#45;&gt;11</title>
<path fill="none" stroke="black" d="M721.65,-400.88C728.07,-392.15 735.08,-382.62 741.78,-373.51"/>
<polygon fill="black" stroke="black" points="744.71,-375.43 747.82,-365.3 739.08,-371.28 744.71,-375.43"/>
</g>
<!-- 12 -->
<g id="node13" class="node">
<title>12</title>
<path fill="#e99356" stroke="black" d="M746.8,-261C746.8,-261 653.8,-261 653.8,-261 647.8,-261 641.8,-255 641.8,-249 641.8,-249 641.8,-205 641.8,-205 641.8,-199 647.8,-193 653.8,-193 653.8,-193 746.8,-193 746.8,-193 752.8,-193 758.8,-199 758.8,-205 758.8,-205 758.8,-249 758.8,-249 758.8,-255 752.8,-261 746.8,-261"/>
<text text-anchor="start" x="663.8" y="-245.8" font-family="Helvetica,sans-Serif" font-size="14.00">Age ≤ 24.75</text>
<text text-anchor="start" x="668.3" y="-230.8" font-family="Helvetica,sans-Serif" font-size="14.00">gini = 0.22</text>
<text text-anchor="start" x="655.3" y="-215.8" font-family="Helvetica,sans-Serif" font-size="14.00">samples = 181</text>
<text text-anchor="start" x="649.8" y="-200.8" font-family="Helvetica,sans-Serif" font-size="14.00">value = [158, 23]</text>
</g>
<!-- 11&#45;&gt;12 -->
<g id="edge12" class="edge">
<title>11&#45;&gt;12</title>
<path fill="none" stroke="black" d="M748.93,-296.88C742.77,-288.15 736.04,-278.62 729.61,-269.51"/>
<polygon fill="black" stroke="black" points="732.44,-267.45 723.81,-261.3 726.72,-271.49 732.44,-267.45"/>
</g>
<!-- 17 -->
<g id="node18" class="node">
<title>17</title>
<path fill="#e78946" stroke="black" d="M883.3,-253.5C883.3,-253.5 805.3,-253.5 805.3,-253.5 799.3,-253.5 793.3,-247.5 793.3,-241.5 793.3,-241.5 793.3,-212.5 793.3,-212.5 793.3,-206.5 799.3,-200.5 805.3,-200.5 805.3,-200.5 883.3,-200.5 883.3,-200.5 889.3,-200.5 895.3,-206.5 895.3,-212.5 895.3,-212.5 895.3,-241.5 895.3,-241.5 895.3,-247.5 889.3,-253.5 883.3,-253.5"/>
<text text-anchor="start" x="812.3" y="-238.3" font-family="Helvetica,sans-Serif" font-size="14.00">gini = 0.11</text>
<text text-anchor="start" x="803.3" y="-223.3" font-family="Helvetica,sans-Serif" font-size="14.00">samples = 84</text>
<text text-anchor="start" x="801.3" y="-208.3" font-family="Helvetica,sans-Serif" font-size="14.00">value = [79, 5]</text>
</g>
<!-- 11&#45;&gt;17 -->
<g id="edge17" class="edge">
<title>11&#45;&gt;17</title>
<path fill="none" stroke="black" d="M795.68,-296.88C803.6,-285.67 812.45,-273.13 820.41,-261.85"/>
<polygon fill="black" stroke="black" points="823.38,-263.71 826.29,-253.52 817.66,-259.67 823.38,-263.71"/>
</g>
<!-- 13 -->
<g id="node14" class="node">
<title>13</title>
<path fill="#e88d4c" stroke="black" d="M671.8,-157C671.8,-157 578.8,-157 578.8,-157 572.8,-157 566.8,-151 566.8,-145 566.8,-145 566.8,-101 566.8,-101 566.8,-95 572.8,-89 578.8,-89 578.8,-89 671.8,-89 671.8,-89 677.8,-89 683.8,-95 683.8,-101 683.8,-101 683.8,-145 683.8,-145 683.8,-151 677.8,-157 671.8,-157"/>
<text text-anchor="start" x="579.3" y="-141.8" font-family="Helvetica,sans-Serif" font-size="14.00">LogFare ≤ 2.18</text>
<text text-anchor="start" x="593.3" y="-126.8" font-family="Helvetica,sans-Serif" font-size="14.00">gini = 0.16</text>
<text text-anchor="start" x="580.3" y="-111.8" font-family="Helvetica,sans-Serif" font-size="14.00">samples = 114</text>
<text text-anchor="start" x="574.8" y="-96.8" font-family="Helvetica,sans-Serif" font-size="14.00">value = [104, 10]</text>
</g>
<!-- 12&#45;&gt;13 -->
<g id="edge13" class="edge">
<title>12&#45;&gt;13</title>
<path fill="none" stroke="black" d="M675.95,-192.88C669.54,-184.15 662.53,-174.62 655.83,-165.51"/>
<polygon fill="black" stroke="black" points="658.53,-163.28 649.79,-157.3 652.89,-167.43 658.53,-163.28"/>
</g>
<!-- 16 -->
<g id="node17" class="node">
<title>16</title>
<path fill="#eb9f69" stroke="black" d="M817.3,-149.5C817.3,-149.5 731.3,-149.5 731.3,-149.5 725.3,-149.5 719.3,-143.5 719.3,-137.5 719.3,-137.5 719.3,-108.5 719.3,-108.5 719.3,-102.5 725.3,-96.5 731.3,-96.5 731.3,-96.5 817.3,-96.5 817.3,-96.5 823.3,-96.5 829.3,-102.5 829.3,-108.5 829.3,-108.5 829.3,-137.5 829.3,-137.5 829.3,-143.5 823.3,-149.5 817.3,-149.5"/>
<text text-anchor="start" x="742.3" y="-134.3" font-family="Helvetica,sans-Serif" font-size="14.00">gini = 0.31</text>
<text text-anchor="start" x="733.3" y="-119.3" font-family="Helvetica,sans-Serif" font-size="14.00">samples = 67</text>
<text text-anchor="start" x="727.3" y="-104.3" font-family="Helvetica,sans-Serif" font-size="14.00">value = [54, 13]</text>
</g>
<!-- 12&#45;&gt;16 -->
<g id="edge16" class="edge">
<title>12&#45;&gt;16</title>
<path fill="none" stroke="black" d="M724.33,-192.88C732.47,-181.67 741.57,-169.13 749.74,-157.85"/>
<polygon fill="black" stroke="black" points="752.75,-159.67 755.79,-149.52 747.08,-155.56 752.75,-159.67"/>
</g>
<!-- 14 -->
<g id="node15" class="node">
<title>14</title>
<path fill="#e99254" stroke="black" d="M596.3,-52.5C596.3,-52.5 518.3,-52.5 518.3,-52.5 512.3,-52.5 506.3,-46.5 506.3,-40.5 506.3,-40.5 506.3,-11.5 506.3,-11.5 506.3,-5.5 512.3,0.5 518.3,0.5 518.3,0.5 596.3,0.5 596.3,0.5 602.3,0.5 608.3,-5.5 608.3,-11.5 608.3,-11.5 608.3,-40.5 608.3,-40.5 608.3,-46.5 602.3,-52.5 596.3,-52.5"/>
<text text-anchor="start" x="525.3" y="-37.3" font-family="Helvetica,sans-Serif" font-size="14.00">gini = 0.21</text>
<text text-anchor="start" x="516.3" y="-22.3" font-family="Helvetica,sans-Serif" font-size="14.00">samples = 50</text>
<text text-anchor="start" x="514.3" y="-7.3" font-family="Helvetica,sans-Serif" font-size="14.00">value = [44, 6]</text>
</g>
<!-- 13&#45;&gt;14 -->
<g id="edge14" class="edge">
<title>13&#45;&gt;14</title>
<path fill="none" stroke="black" d="M601.52,-88.77C595.08,-79.77 588.09,-70.02 581.62,-60.97"/>
<polygon fill="black" stroke="black" points="584.27,-58.67 575.61,-52.57 578.58,-62.74 584.27,-58.67"/>
</g>
<!-- 15 -->
<g id="node16" class="node">
<title>15</title>
<path fill="#e78946" stroke="black" d="M732.3,-52.5C732.3,-52.5 654.3,-52.5 654.3,-52.5 648.3,-52.5 642.3,-46.5 642.3,-40.5 642.3,-40.5 642.3,-11.5 642.3,-11.5 642.3,-5.5 648.3,0.5 654.3,0.5 654.3,0.5 732.3,0.5 732.3,0.5 738.3,0.5 744.3,-5.5 744.3,-11.5 744.3,-11.5 744.3,-40.5 744.3,-40.5 744.3,-46.5 738.3,-52.5 732.3,-52.5"/>
<text text-anchor="start" x="661.3" y="-37.3" font-family="Helvetica,sans-Serif" font-size="14.00">gini = 0.12</text>
<text text-anchor="start" x="652.3" y="-22.3" font-family="Helvetica,sans-Serif" font-size="14.00">samples = 64</text>
<text text-anchor="start" x="650.3" y="-7.3" font-family="Helvetica,sans-Serif" font-size="14.00">value = [60, 4]</text>
</g>
<!-- 13&#45;&gt;15 -->
<g id="edge15" class="edge">
<title>13&#45;&gt;15</title>
<path fill="none" stroke="black" d="M649.09,-88.77C655.53,-79.77 662.51,-70.02 668.99,-60.97"/>
<polygon fill="black" stroke="black" points="672.03,-62.74 675,-52.57 666.33,-58.67 672.03,-62.74"/>
</g>
<!-- 19 -->
<g id="node20" class="node">
<title>19</title>
<path fill="#f6d5bd" stroke="black" d="M964.3,-357.5C964.3,-357.5 878.3,-357.5 878.3,-357.5 872.3,-357.5 866.3,-351.5 866.3,-345.5 866.3,-345.5 866.3,-316.5 866.3,-316.5 866.3,-310.5 872.3,-304.5 878.3,-304.5 878.3,-304.5 964.3,-304.5 964.3,-304.5 970.3,-304.5 976.3,-310.5 976.3,-316.5 976.3,-316.5 976.3,-345.5 976.3,-345.5 976.3,-351.5 970.3,-357.5 964.3,-357.5"/>
<text text-anchor="start" x="889.3" y="-342.3" font-family="Helvetica,sans-Serif" font-size="14.00">gini = 0.48</text>
<text text-anchor="start" x="880.3" y="-327.3" font-family="Helvetica,sans-Serif" font-size="14.00">samples = 60</text>
<text text-anchor="start" x="874.3" y="-312.3" font-family="Helvetica,sans-Serif" font-size="14.00">value = [36, 24]</text>
</g>
<!-- 18&#45;&gt;19 -->
<g id="edge19" class="edge">
<title>18&#45;&gt;19</title>
<path fill="none" stroke="black" d="M921.3,-400.88C921.3,-390.33 921.3,-378.6 921.3,-367.85"/>
<polygon fill="black" stroke="black" points="924.8,-367.52 921.3,-357.52 917.8,-367.52 924.8,-367.52"/>
</g>
<!-- 20 -->
<g id="node21" class="node">
<title>20</title>
<path fill="#eda877" stroke="black" d="M1109.3,-357.5C1109.3,-357.5 1023.3,-357.5 1023.3,-357.5 1017.3,-357.5 1011.3,-351.5 1011.3,-345.5 1011.3,-345.5 1011.3,-316.5 1011.3,-316.5 1011.3,-310.5 1017.3,-304.5 1023.3,-304.5 1023.3,-304.5 1109.3,-304.5 1109.3,-304.5 1115.3,-304.5 1121.3,-310.5 1121.3,-316.5 1121.3,-316.5 1121.3,-345.5 1121.3,-345.5 1121.3,-351.5 1115.3,-357.5 1109.3,-357.5"/>
<text text-anchor="start" x="1034.3" y="-342.3" font-family="Helvetica,sans-Serif" font-size="14.00">gini = 0.36</text>
<text text-anchor="start" x="1025.3" y="-327.3" font-family="Helvetica,sans-Serif" font-size="14.00">samples = 59</text>
<text text-anchor="start" x="1019.3" y="-312.3" font-family="Helvetica,sans-Serif" font-size="14.00">value = [45, 14]</text>
</g>
<!-- 18&#45;&gt;20 -->
<g id="edge20" class="edge">
<title>18&#45;&gt;20</title>
<path fill="none" stroke="black" d="M968.38,-400.88C985.42,-388.9 1004.61,-375.4 1021.45,-363.55"/>
<polygon fill="black" stroke="black" points="1023.86,-366.14 1030.03,-357.52 1019.83,-360.41 1023.86,-366.14"/>
</g>
</g>
</svg>
