<?xml version="1.0" encoding="UTF-8" standalone="no"?>
<!DOCTYPE svg PUBLIC "-//W3C//DTD SVG 1.1//EN"
 "http://www.w3.org/Graphics/SVG/1.1/DTD/svg11.dtd">
<!-- Generated by graphviz version 2.43.0 (0)
 -->
<!-- Title: Tree Pages: 1 -->
<svg width="616pt" height="373pt"
 viewBox="0.00 0.00 616.33 373.00" xmlns="http://www.w3.org/2000/svg" xmlns:xlink="http://www.w3.org/1999/xlink">
<g id="graph0" class="graph" transform="scale(1 1) rotate(0) translate(4 369)">
<title>Tree</title>
<polygon fill="white" stroke="transparent" points="-4,4 -4,-369 612.33,-369 612.33,4 -4,4"/>
<!-- 0 -->
<g id="node1" class="node">
<title>0</title>
<path fill="#eda673" stroke="black" d="M429.45,-365C429.45,-365 302.45,-365 302.45,-365 296.45,-365 290.45,-359 290.45,-353 290.45,-353 290.45,-309 290.45,-309 290.45,-303 296.45,-297 302.45,-297 302.45,-297 429.45,-297 429.45,-297 435.45,-297 441.45,-303 441.45,-309 441.45,-309 441.45,-353 441.45,-353 441.45,-359 435.45,-365 429.45,-365"/>
<text text-anchor="start" x="298.45" y="-349.8" font-family="Helvetica,sans-Serif" font-size="14.00">Coupler_System ≤ 0.5</text>
<text text-anchor="start" x="302.45" y="-334.8" font-family="Helvetica,sans-Serif" font-size="14.00">squared_error = 0.46</text>
<text text-anchor="start" x="317.45" y="-319.8" font-family="Helvetica,sans-Serif" font-size="14.00">samples = 1000</text>
<text text-anchor="start" x="324.95" y="-304.8" font-family="Helvetica,sans-Serif" font-size="14.00">value = 10.11</text>
</g>
<!-- 1 -->
<g id="node2" class="node">
<title>1</title>
<path fill="#eb9d64" stroke="black" d="M302.45,-261C302.45,-261 183.45,-261 183.45,-261 177.45,-261 171.45,-255 171.45,-249 171.45,-249 171.45,-205 171.45,-205 171.45,-199 177.45,-193 183.45,-193 183.45,-193 302.45,-193 302.45,-193 308.45,-193 314.45,-199 314.45,-205 314.45,-205 314.45,-249 314.45,-249 314.45,-255 308.45,-261 302.45,-261"/>
<text text-anchor="start" x="183.45" y="-245.8" font-family="Helvetica,sans-Serif" font-size="14.00">YearMade ≤ 1984.5</text>
<text text-anchor="start" x="179.45" y="-230.8" font-family="Helvetica,sans-Serif" font-size="14.00">squared_error = 0.39</text>
<text text-anchor="start" x="197.95" y="-215.8" font-family="Helvetica,sans-Serif" font-size="14.00">samples = 904</text>
<text text-anchor="start" x="201.95" y="-200.8" font-family="Helvetica,sans-Serif" font-size="14.00">value = 10.21</text>
</g>
<!-- 0&#45;&gt;1 -->
<g id="edge1" class="edge">
<title>0&#45;&gt;1</title>
<path fill="none" stroke="black" d="M326.01,-296.88C314.84,-287.62 302.59,-277.45 291,-267.85"/>
<polygon fill="black" stroke="black" points="293.04,-264.99 283.1,-261.3 288.57,-270.38 293.04,-264.99"/>
<text text-anchor="middle" x="285.43" y="-282.49" font-family="Helvetica,sans-Serif" font-size="14.00">True</text>
</g>
<!-- 2 -->
<g id="node7" class="node">
<title>2</title>
<path fill="#ffffff" stroke="black" d="M549.45,-253.5C549.45,-253.5 430.45,-253.5 430.45,-253.5 424.45,-253.5 418.45,-247.5 418.45,-241.5 418.45,-241.5 418.45,-212.5 418.45,-212.5 418.45,-206.5 424.45,-200.5 430.45,-200.5 430.45,-200.5 549.45,-200.5 549.45,-200.5 555.45,-200.5 561.45,-206.5 561.45,-212.5 561.45,-212.5 561.45,-241.5 561.45,-241.5 561.45,-247.5 555.45,-253.5 549.45,-253.5"/>
<text text-anchor="start" x="426.45" y="-238.3" font-family="Helvetica,sans-Serif" font-size="14.00">squared_error = 0.11</text>
<text text-anchor="start" x="448.95" y="-223.3" font-family="Helvetica,sans-Serif" font-size="14.00">samples = 96</text>
<text text-anchor="start" x="452.45" y="-208.3" font-family="Helvetica,sans-Serif" font-size="14.00">value = 9.18</text>
</g>
<!-- 0&#45;&gt;2 -->
<g id="edge6" class="edge">
<title>0&#45;&gt;2</title>
<path fill="none" stroke="black" d="M406.21,-296.88C420.65,-285.01 436.89,-271.65 451.2,-259.88"/>
<polygon fill="black" stroke="black" points="453.43,-262.58 458.92,-253.52 448.98,-257.17 453.43,-262.58"/>
<text text-anchor="middle" x="456.5" y="-274.7" font-family="Helvetica,sans-Serif" font-size="14.00">False</text>
</g>
<!-- 3 -->
<g id="node3" class="node">
<title>3</title>
<path fill="#f1bc96" stroke="black" d="M169.45,-149.5C169.45,-149.5 50.45,-149.5 50.45,-149.5 44.45,-149.5 38.45,-143.5 38.45,-137.5 38.45,-137.5 38.45,-108.5 38.45,-108.5 38.45,-102.5 44.45,-96.5 50.45,-96.5 50.45,-96.5 169.45,-96.5 169.45,-96.5 175.45,-96.5 181.45,-102.5 181.45,-108.5 181.45,-108.5 181.45,-137.5 181.45,-137.5 181.45,-143.5 175.45,-149.5 169.45,-149.5"/>
<text text-anchor="start" x="46.45" y="-134.3" font-family="Helvetica,sans-Serif" font-size="14.00">squared_error = 0.35</text>
<text text-anchor="start" x="64.95" y="-119.3" font-family="Helvetica,sans-Serif" font-size="14.00">samples = 240</text>
<text text-anchor="start" x="72.45" y="-104.3" font-family="Helvetica,sans-Serif" font-size="14.00">value = 9.88</text>
</g>
<!-- 1&#45;&gt;3 -->
<g id="edge2" class="edge">
<title>1&#45;&gt;3</title>
<path fill="none" stroke="black" d="M199.77,-192.88C184.28,-181.01 166.86,-167.65 151.51,-155.88"/>
<polygon fill="black" stroke="black" points="153.29,-152.83 143.23,-149.52 149.03,-158.38 153.29,-152.83"/>
</g>
<!-- 4 -->
<g id="node4" class="node">
<title>4</title>
<path fill="#e89153" stroke="black" d="M447.95,-157C447.95,-157 303.95,-157 303.95,-157 297.95,-157 291.95,-151 291.95,-145 291.95,-145 291.95,-101 291.95,-101 291.95,-95 297.95,-89 303.95,-89 303.95,-89 447.95,-89 447.95,-89 453.95,-89 459.95,-95 459.95,-101 459.95,-101 459.95,-145 459.95,-145 459.95,-151 453.95,-157 447.95,-157"/>
<text text-anchor="start" x="299.95" y="-141.8" font-family="Helvetica,sans-Serif" font-size="14.00">fiProductClassDesc ≤ 7.5</text>
<text text-anchor="start" x="312.45" y="-126.8" font-family="Helvetica,sans-Serif" font-size="14.00">squared_error = 0.36</text>
<text text-anchor="start" x="330.95" y="-111.8" font-family="Helvetica,sans-Serif" font-size="14.00">samples = 664</text>
<text text-anchor="start" x="334.95" y="-96.8" font-family="Helvetica,sans-Serif" font-size="14.00">value = 10.33</text>
</g>
<!-- 1&#45;&gt;4 -->
<g id="edge3" class="edge">
<title>1&#45;&gt;4</title>
<path fill="none" stroke="black" d="M286.13,-192.88C298.33,-183.53 311.72,-173.26 324.36,-163.57"/>
<polygon fill="black" stroke="black" points="326.72,-166.16 332.53,-157.3 322.46,-160.61 326.72,-166.16"/>
</g>
<!-- 5 -->
<g id="node5" class="node">
<title>5</title>
<path fill="#f0b990" stroke="black" d="M311.45,-52.5C311.45,-52.5 192.45,-52.5 192.45,-52.5 186.45,-52.5 180.45,-46.5 180.45,-40.5 180.45,-40.5 180.45,-11.5 180.45,-11.5 180.45,-5.5 186.45,0.5 192.45,0.5 192.45,0.5 311.45,0.5 311.45,0.5 317.45,0.5 323.45,-5.5 323.45,-11.5 323.45,-11.5 323.45,-40.5 323.45,-40.5 323.45,-46.5 317.45,-52.5 311.45,-52.5"/>
<text text-anchor="start" x="188.45" y="-37.3" font-family="Helvetica,sans-Serif" font-size="14.00">squared_error = 0.09</text>
<text text-anchor="start" x="206.95" y="-22.3" font-family="Helvetica,sans-Serif" font-size="14.00">samples = 195</text>
<text text-anchor="start" x="214.45" y="-7.3" font-family="Helvetica,sans-Serif" font-size="14.00">value = 9.92</text>
</g>
<!-- 4&#45;&gt;5 -->
<g id="edge4" class="edge">
<title>4&#45;&gt;5</title>
<path fill="none" stroke="black" d="M332.58,-88.77C319.86,-79.03 305.99,-68.4 293.39,-58.75"/>
<polygon fill="black" stroke="black" points="295.39,-55.87 285.33,-52.57 291.14,-61.43 295.39,-55.87"/>
</g>
<!-- 6 -->
<g id="node6" class="node">
<title>6</title>
<path fill="#e58139" stroke="black" d="M558.45,-52.5C558.45,-52.5 439.45,-52.5 439.45,-52.5 433.45,-52.5 427.45,-46.5 427.45,-40.5 427.45,-40.5 427.45,-11.5 427.45,-11.5 427.45,-5.5 433.45,0.5 439.45,0.5 439.45,0.5 558.45,0.5 558.45,0.5 564.45,0.5 570.45,-5.5 570.45,-11.5 570.45,-11.5 570.45,-40.5 570.45,-40.5 570.45,-46.5 564.45,-52.5 558.45,-52.5"/>
<text text-anchor="start" x="435.45" y="-37.3" font-family="Helvetica,sans-Serif" font-size="14.00">squared_error = 0.37</text>
<text text-anchor="start" x="453.95" y="-22.3" font-family="Helvetica,sans-Serif" font-size="14.00">samples = 469</text>
<text text-anchor="start" x="461.45" y="-7.3" font-family="Helvetica,sans-Serif" font-size="14.00">value = 10.5</text>
</g>
<!-- 4&#45;&gt;6 -->
<g id="edge5" class="edge">
<title>4&#45;&gt;6</title>
<path fill="none" stroke="black" d="M418.97,-88.77C431.58,-79.03 445.34,-68.4 457.84,-58.75"/>
<polygon fill="black" stroke="black" points="460.07,-61.45 465.84,-52.57 455.79,-55.91 460.07,-61.45"/>
</g>
</g>
</svg>
